# xmcd
# Track frame offsets:
# 150
# 15542
# 32905
# 54938
# 72659
# 90670
# 113832
# 129148
# 146957
# 157744
# 178263
# 193490
# 208437
#
# Disc length: 2962 seconds
# Revision: 0
# Processed by: cddbd v1.5.2PL0 Copyright (c) Steve Scherf et al.
# Submitted via: VisiTrax 2.11.1.266 - For more info visit www.synapsa.com
#
DISCID=c10b900d
DTITLE=Joe Galea Band - Midnight in New Orleans
DYEAR=1900
DGENRE=Blues
TTITLE0=Wild Thang
TTITLE1=Aint Got No Name
TTITLE2=Wash My Hands
TTITLE3=Why Me
TTITLE4=No More Doggin"
TTITLE5=Who
TTITLE6=Stay With Me
TTITLE7=I'm Ready
TTITLE8=Blue Monday
TTITLE9=Congo Square
TTITLE10=Midnight in New Orleans
TTITLE11=6345789
TTITLE12=Stagger Lee
EXTD=
EXTT0=
EXTT1=
EXTT2=
EXTT3=
EXTT4=
EXTT5=
EXTT6=
EXTT7=
EXTT8=
EXTT9=
EXTT10=
EXTT11=
EXTT12=
PLAYORDER=
